<?xml version="1.0" ?><!DOCTYPE svg  PUBLIC '-//W3C//DTD SVG 1.1//EN'  'http://www.w3.org/Graphics/SVG/1.1/DTD/svg11.dtd'><svg height="512px" style="enable-background:new 0 0 512 512;" version="1.1" viewBox="0 0 512 512" width="512px" xml:space="preserve" xmlns="http://www.w3.org/2000/svg" xmlns:xlink="http://www.w3.org/1999/xlink"><g id="bomb_x2C__Army_x2C__bomb_x2C__grenade_x2C__military"><g><path d="M299.447,442.711h-24.995v-75.823    c0-17.948-5.313-35.492-15.255-50.462l-3.318-5.043l-3.382,5.043c-9.95,14.97-15.254,32.514-15.254,50.462v75.823h-24.995    c-8.155,0-14.705-6.628-14.705-14.787V187.308l3.441-1.727c34.527-17.325,75.199-17.325,109.719,0l3.523,1.727v-4.622    c0-1.39-0.071-2.768-0.071-4.08l-3.452-1.724c-34.52-17.327-75.192-17.327-109.719,0l-3.512,1.724v-4.622    c0-44.396,14.087-87.691,40.246-123.59l1.174-1.59c8.361-11.535,25.542-11.535,33.98,0l1.097,1.59    c26.166,35.899,40.257,79.194,40.257,123.59v4.622h-0.071c0,1.312,0.071,2.69,0.071,4.08v130.145l34.587,27.756    c5.809,4.556,9.112,11.6,9.112,18.991v29.626c0.07,13.385-10.833,24.296-24.296,24.296h-19.403v14.424    C314.227,436.083,307.587,442.711,299.447,442.711L299.447,442.711z M197.472,413.5h-19.407c-13.47,0-24.296-10.911-24.296-24.296    v-29.626c0-7.392,3.303-14.436,9.105-18.991l34.598-27.756V413.5L197.472,413.5z M255.879,318.7L255.879,318.7    c-9.528,14.293-14.637,30.999-14.637,48.188v95.769c0,5.11,4.141,9.188,9.19,9.188h10.833c5.039,0,9.18-4.077,9.18-9.188v-95.769    C270.445,349.699,265.343,332.993,255.879,318.7L255.879,318.7z" style="fill-rule:evenodd;clip-rule:evenodd;fill:#262626;"/></g></g><g id="Layer_1"/></svg>